<svg width="66" height="123" viewBox="0 0 66 123" fill="none" xmlns="http://www.w3.org/2000/svg">
<rect x="3" y="81" width="32" height="33" fill="#41B4BB"/>
<rect x="31" y="114" width="4" height="3" fill="#41B4BB"/>
<rect x="3" y="114" width="6" height="3" fill="#41B4BB"/>
<rect y="108" width="3" height="6" fill="#41B4BB"/>
<rect y="94" width="3" height="10" fill="#41B4BB"/>
<rect x="35" y="94" width="3" height="10" fill="#41B4BB"/>
<rect x="35" y="84" width="3" height="6" fill="#41B4BB"/>
<rect y="84" width="3" height="6" fill="#41B4BB"/>
<rect width="11" height="3" transform="matrix(-1 0 0 1 24 114)" fill="#41B4BB"/>
<rect x="35" y="108" width="3" height="6" fill="#41B4BB"/>
<rect x="28" y="79" width="2" height="13" transform="rotate(90 28 79)" fill="#41B4BB"/>
<rect x="13" y="79" width="2" height="7" transform="rotate(90 13 79)" fill="#41B4BB"/>
<rect x="35" y="79" width="2" height="4" transform="rotate(90 35 79)" fill="#41B4BB"/>
<rect x="3" y="9" width="32" height="33" fill="#41B4BB"/>
<rect x="31" y="42" width="4" height="2" fill="#41B4BB"/>
<rect x="3" y="42" width="6" height="2" fill="#41B4BB"/>
<rect y="35" width="3" height="7" fill="#41B4BB"/>
<rect y="22" width="3" height="11" fill="#41B4BB"/>
<rect x="35" y="22" width="3" height="11" fill="#41B4BB"/>
<rect x="35" y="13" width="3" height="5" fill="#41B4BB"/>
<rect y="13" width="3" height="5" fill="#41B4BB"/>
<rect width="11" height="2" transform="matrix(-1 0 0 1 24 42)" fill="#41B4BB"/>
<rect x="35" y="35" width="3" height="7" fill="#41B4BB"/>
<rect x="28" y="6" width="3" height="13" transform="rotate(90 28 6)" fill="#41B4BB"/>
<rect x="13" y="6" width="3" height="7" transform="rotate(90 13 6)" fill="#41B4BB"/>
<rect x="35" y="6" width="3" height="4" transform="rotate(90 35 6)" fill="#41B4BB"/>
<rect x="63" y="18" width="3" height="86" fill="#41B4BB"/>
<rect x="51" y="117" width="2" height="6" fill="#41B4BB"/>
<rect x="53" y="114" width="4" height="3" fill="#41B4BB"/>
<rect x="57" y="110" width="3" height="4" fill="#41B4BB"/>
<rect x="60" y="104" width="3" height="6" fill="#41B4BB"/>
<rect x="60" y="13" width="3" height="5" fill="#41B4BB"/>
<rect x="57" y="9" width="3" height="4" fill="#41B4BB"/>
<rect x="53" y="6" width="4" height="3" fill="#41B4BB"/>
<rect x="51" width="2" height="6" fill="#41B4BB"/>
<rect x="12" y="18" width="14" height="14" fill="#050505"/>
<rect x="6" y="85" width="26" height="26" fill="#050505"/>
</svg>
